HIERARCHY
ROOT Hips
{
	OFFSET -0.001795 -0.223333 0.028219
	CHANNELS 6 Xposition Yposition Zposition Zrotation Yrotation Xrotation 
	JOINT LeftUpLeg
	{
		OFFSET 0.069520 -0.091406 -0.006815
		CHANNELS 3 Zrotation Yrotation Xrotation
		JOINT LeftLeg
		{
			OFFSET 0.034277 -0.375199 -0.004496
			CHANNELS 3 Zrotation Yrotation Xrotation
			JOINT LeftFoot
			{
				OFFSET -0.013596 -0.397961 -0.043693
				CHANNELS 3 Zrotation Yrotation Xrotation
				JOINT LeftToe
				{
					OFFSET 0.026358 -0.055791 0.119288
					CHANNELS 3 Zrotation Yrotation Xrotation
					End Site
					{
						OFFSET 0.000000 0.000000 0.000000
					}
				}
			}
		}
	}
	JOINT RightUpLeg
	{
		OFFSET -0.067670 -0.090522 -0.004320
		CHANNELS 3 Zrotation Yrotation Xrotation
		JOINT RightLeg
		{
			OFFSET -0.038290 -0.382569 -0.008850
			CHANNELS 3 Zrotation Yrotation Xrotation
			JOINT RightFoot
			{
				OFFSET 0.015774 -0.398415 -0.042312
				CHANNELS 3 Zrotation Yrotation Xrotation
				JOINT RightToe
				{
					OFFSET -0.025372 -0.048144 0.123348
					CHANNELS 3 Zrotation Yrotation Xrotation
					End Site
					{
						OFFSET 0.000000 0.000000 0.000000
					}
				}
			}
		}
	}
	JOINT Spine
	{
		OFFSET -0.002533 0.108963 -0.026696
		CHANNELS 3 Zrotation Yrotation Xrotation
		JOINT Spine1
		{
			OFFSET 0.005487 0.135180 0.001092
			CHANNELS 3 Zrotation Yrotation Xrotation
			JOINT Spine2
			{
				OFFSET 0.001457 0.052922 0.025425
				CHANNELS 3 Zrotation Yrotation Xrotation
				JOINT Neck
				{
					OFFSET -0.002778 0.213870 -0.042857
					CHANNELS 3 Zrotation Yrotation Xrotation
					JOINT Head
					{
						OFFSET 0.005152 0.064970 0.051349
						CHANNELS 3 Zrotation Yrotation Xrotation
						End Site
						{
							OFFSET 0.000000 0.000000 0.000000
						}
					}
				}
				JOINT LeftShoulder
				{
					OFFSET 0.078845 0.121749 -0.034090
					CHANNELS 3 Zrotation Yrotation Xrotation
					JOINT LeftArm
					{
						OFFSET 0.090977 0.030469 -0.008868
						CHANNELS 3 Zrotation Yrotation Xrotation
						JOINT LeftForeArm
						{
							OFFSET 0.259612 -0.012772 -0.027456
							CHANNELS 3 Zrotation Yrotation Xrotation
							JOINT LeftHand
							{
								OFFSET 0.249234 0.008986 -0.001171
								CHANNELS 3 Zrotation Yrotation Xrotation
								End Site
								{
									OFFSET 0.000000 0.000000 0.000000
								}
							}
						}
					}
				}
				JOINT RightShoulder
				{
					OFFSET -0.081759 0.118833 -0.038615
					CHANNELS 3 Zrotation Yrotation Xrotation
					JOINT RightArm
					{
						OFFSET -0.096012 0.032551 -0.009143
						CHANNELS 3 Zrotation Yrotation Xrotation
						JOINT RightForeArm
						{
							OFFSET -0.253742 -0.013329 -0.021401
							CHANNELS 3 Zrotation Yrotation Xrotation
							JOINT RightHand
							{
								OFFSET -0.255298 0.007772 -0.005559
								CHANNELS 3 Zrotation Yrotation Xrotation
								End Site
								{
									OFFSET 0.000000 0.000000 0.000000
								}
							}
						}
					}
				}
			}
		}
	}
}
MOTION
Frames: 7
Frame Time: 0.050000
0.000000 0.950534 0.000000 1.686803 16.732369 -1.707851 0.385322 -0.385948 -4.505505 -7.972136 -0.609026 37.367246 3.002555 7.478223 3.086538 0.000000 0.000000 0.000000 7.345783 1.343180 -8.567761 -0.601968 0.231042 13.186710 -0.467192 -2.437751 5.759507 0.000000 0.000000 0.000000 2.179456 -0.564109 8.213653 2.454684 -0.799274 -3.673586 -4.124678 -0.613171 6.013384 7.932666 -5.421860 -4.433830 0.000000 0.000000 0.000000 -20.227617 0.157642 -4.408501 -52.055079 3.095737 -7.200856 -11.684128 -27.254899 3.244039 0.000000 0.000000 0.000000 19.886352 -2.561817 -0.923958 52.434493 1.919776 -4.864719 5.573150 28.668039 2.920601 0.000000 0.000000 0.000000 
0.003785 0.951337 0.025749 1.750453 16.033587 -2.015222 3.415616 -0.865438 -10.932094 -13.988638 1.598035 51.009923 0.826266 5.383651 7.750445 0.000000 0.000000 0.000000 7.106309 1.290429 -8.250954 0.014389 0.037595 16.159226 -0.115613 -1.599092 5.165241 0.000000 0.000000 0.000000 3.306856 -0.732321 9.126638 1.057793 -0.140292 -4.157405 -3.437214 -0.249552 6.164667 6.957421 -4.177309 -6.530095 0.000000 0.000000 0.000000 -19.997095 -0.661405 -3.875751 -52.168966 1.026860 -6.375303 -11.750888 -27.132940 3.268930 0.000000 0.000000 0.000000 17.941501 -4.058325 -1.783181 53.708334 2.758626 -4.462608 7.455991 28.479159 3.378638 0.000000 0.000000 0.000000 
0.007552 0.953289 0.049730 1.959850 13.929072 -2.714734 5.238432 -1.485252 -19.978416 -18.313867 5.351990 64.834338 2.595736 9.744500 13.602523 0.000000 0.000000 0.000000 7.295327 0.998522 -6.199094 -1.305645 0.495970 15.453948 1.662276 1.556203 7.442304 0.000000 0.000000 0.000000 3.395480 -0.795956 9.962627 0.333385 0.238853 -5.464066 -3.016625 0.656093 7.382324 6.228404 -3.798445 -5.887737 0.000000 0.000000 0.000000 -21.426542 -0.713623 -4.059072 -50.193944 1.359330 -6.244232 -12.009471 -27.142878 3.379759 0.000000 0.000000 0.000000 18.310342 -2.316080 -0.829043 52.198768 3.073074 -4.437700 8.536450 28.549979 3.623059 0.000000 0.000000 0.000000 
0.011672 0.954325 0.073244 2.387221 13.070594 -4.189605 6.403007 -1.848522 -26.207670 -19.645865 7.748450 73.510222 4.011680 11.735902 14.011690 0.000000 0.000000 0.000000 7.345465 0.473504 -2.765894 -1.460997 0.573925 15.195543 1.187003 0.653934 6.760114 0.000000 0.000000 0.000000 2.264646 -0.818958 11.628781 0.762390 -0.034431 -4.292069 -2.503553 1.888186 6.011145 7.792203 -4.894897 -6.139264 0.000000 0.000000 0.000000 -23.199574 -0.184555 -4.923410 -48.014164 2.062069 -5.942250 -13.840903 -28.724966 3.972960 0.000000 0.000000 0.000000 18.643928 -2.398775 -0.824029 49.761682 3.776746 -3.972989 11.266318 29.387845 4.441434 0.000000 0.000000 0.000000 
0.016015 0.956991 0.097285 3.040272 10.590114 -5.091956 6.721861 -2.126052 -31.727631 -17.940592 8.314302 77.759917 5.493026 13.633870 12.241578 0.000000 0.000000 0.000000 7.374681 -0.027544 0.175285 -2.853907 1.018891 14.952180 1.816013 1.975253 6.379636 0.000000 0.000000 0.000000 1.167626 -0.766628 12.788568 1.069138 -0.234529 -3.851869 -2.215488 3.435677 5.125664 7.424964 -4.614887 -6.031510 0.000000 0.000000 0.000000 -23.352134 -0.842913 -4.633890 -47.551243 2.252685 -5.854537 -13.104720 -27.909078 3.668615 0.000000 0.000000 0.000000 19.058182 -2.098501 -0.698727 48.837300 4.293693 -3.670578 11.031531 30.755998 4.592925 0.000000 0.000000 0.000000 
0.020936 0.957671 0.122220 3.710814 7.555113 -5.539846 6.383396 -2.245066 -35.595684 -14.449524 6.782193 76.959532 3.454488 9.820853 9.531020 0.000000 0.000000 0.000000 6.736779 -0.399248 2.357670 -3.433606 1.260265 14.971545 2.436769 3.269302 5.983229 0.000000 0.000000 0.000000 0.325840 -0.639857 12.844301 1.093263 -0.296951 -3.710750 -1.610503 4.181301 5.251248 6.825266 -4.136015 -6.368554 0.000000 0.000000 0.000000 -24.284386 -0.450946 -4.725038 -47.007922 2.431918 -5.897501 -13.356312 -28.031595 3.828439 0.000000 0.000000 0.000000 19.148967 -1.063993 -0.360047 48.785406 5.201051 -3.311297 10.846509 31.224213 4.549718 0.000000 0.000000 0.000000 
0.026384 0.956708 0.147989 4.064211 4.110432 -5.706489 5.371764 -2.267833 -37.327374 -9.717445 3.830442 71.579446 1.889682 6.814357 8.354162 0.000000 0.000000 0.000000 6.104513 -0.699995 4.265485 -4.013063 1.523499 15.377655 3.110941 5.387773 4.365119 0.000000 0.000000 0.000000 0.352306 -0.583671 12.655429 0.842853 -0.260785 -3.050676 -1.354151 5.154686 4.849974 6.842969 -3.930379 -7.555593 0.000000 0.000000 0.000000 -23.933980 -0.531568 -4.335295 -47.622687 2.929635 -6.239170 -12.654794 -27.761441 3.678045 0.000000 0.000000 0.000000 19.029426 -0.730980 -0.406115 48.793603 6.231678 -2.817905 10.254128 31.950651 4.441255 0.000000 0.000000 0.000000 
